<svg version="1.1" xmlns="http://www.w3.org/2000/svg" viewBox="-1091.4990023185476 -577.9265472890169 2182.9980046370947 1121.674801678749" fill="none" stroke="black" stroke-width="0.6%" vector-effect="non-scaling-stroke">
    <path d="M -1090.499 -461.4768 L -1090.499 -70.54579 L 0.02228 391.23432 L 1090.499 275.78457" />
    <path d="M 0.02228 0.30331 L 0.02228 391.23432" />
    <path d="M -1090.499 -461.4768 L 0.02228 0.30331 L 1090.499 -115.14644 L -0.02228 -576.92655 L -1090.499 -461.4768 Z" />
    <path d="M 1090.499 -115.14644 L 1090.499 275.78457" />
    <path d="M -4.4942 -574.08583 L -4.4942 -464.59015" />
    <path d="M -4.4942 -574.08583 L -1077.08252 -460.52995 L 4.4942 -2.5374 L 1077.08252 -116.09329 L -4.4942 -574.08583 Z" />
    <path d="M 798.28022 -92.57971 A 295.275 258.11203 112.95018 0 1 851.86981 -92.24982" />
    <path d="M 1042.1679 280.90143 A 295.275 258.11203 112.95018 0 1 683.14348 467.90296 L 484.61579 383.83662" />
    <path d="M 683.14348 467.90296 A 295.275 258.11203 112.95018 0 1 554.39254 332.54264" />
    <path d="M 744.69064 -80.90266 A 295.275 258.11203 112.95018 0 1 798.28022 -92.57971" />
    <path d="M 409.21403 -257.32939 A 295.275 258.11203 292.95018 0 0 186.22654 -99.76913" />
    <path d="M 524.35078 -240.65129 A 295.275 258.11203 292.95018 0 0 409.21403 -257.32939" />
    <path d="M -409.21403 -319.83138 A 295.275 258.11203 112.95018 0 1 -294.07729 -303.15329 L -683.14348 -467.90296 A 295.275 258.11203 292.95018 0 0 -798.28022 -484.58106 A 295.275 258.11203 292.95018 0 0 -957.12342 -409.73339" />
    <path d="M -294.07729 -303.15329 A 295.275 258.11203 112.95018 0 1 -175.59733 -190.57628" />
    <path d="M -361.05459 247.3921 A 295.275 258.11203 112.95018 0 1 -524.35078 240.65129 L -913.41696 75.90162" />
    <path d="M -524.35078 240.65129 A 295.275 258.11203 112.95018 0 1 -648.27099 116.7152" />
    <path d="M -568.05723 -244.98372 A 295.275 258.11203 112.95018 0 1 -409.21403 -319.83138" />
    <path d="M -1037.33718 -48.03447 A 295.275 258.11203 292.95018 0 0 -913.41696 75.90162" />
    <path d="M 127.43789 -376.6472 A 295.275 258.11203 112.95018 0 1 242.57464 -359.96911 L -146.49155 -524.71878 A 295.275 258.11203 292.95018 0 0 -261.62829 -541.39688 A 295.275 258.11203 292.95018 0 0 -484.61579 -383.83662" />
    <path d="M 242.57464 -359.96911 A 295.275 258.11203 112.95018 0 1 361.05459 -247.3921" />
    <path d="M -104.34522 -201.8531 A 295.275 258.11203 112.95018 0 1 127.43789 -376.6472" />
    <path d="M 261.62829 -35.76389 A 295.275 258.11203 112.95018 0 1 315.21788 -35.434" />
    <path d="M 505.51598 337.71725 A 295.275 258.11203 112.95018 0 1 146.49155 524.71878 L -242.57464 359.96911" />
    <path d="M 146.49155 524.71878 A 295.275 258.11203 112.95018 0 1 17.74061 389.35846" />
    <path d="M 208.03871 -24.08684 A 295.275 258.11203 112.95018 0 1 261.62829 -35.76389" />
    <path d="M -127.43789 -200.51357 A 295.275 258.11203 292.95018 0 0 -286.28109 -125.6659" />
    <path d="M -366.49485 236.03302 A 295.275 258.11203 292.95018 0 0 -242.57464 359.96911" />
    <path d="M -12.30115 -183.83547 A 295.275 258.11203 292.95018 0 0 -127.43789 -200.51357" />
    <path d="M 870.22144 -94.19272 L 524.35078 -240.65129" />
    <path d="M 333.56951 -37.3769 L -12.30115 -183.83547" />
</svg>